G04 --- HEADER BEGIN --- *
%TF.GenerationSoftware,LibrePCB,LibrePCB,0.1.3*%
%TF.CreationDate,2020-05-07T14:01:13*%
%TF.ProjectId,SprigFTDI - default,c1b4763c-5183-4b8f-a850-9e664554c68f,v1*%
%TF.Part,Single*%
%FSLAX66Y66*%
%MOMM*%
G01*
G74*
G04 --- HEADER END --- *
G04 --- APERTURE LIST BEGIN --- *
%ADD10O,1.787X2.39*%
%ADD11R,1.787X2.39*%
%ADD12R,1.2X1.6*%
%ADD13R,1.7X1.5*%
%ADD14R,1.45X0.95*%
%ADD15R,1.5X1.7*%
%ADD16R,1.26X0.85*%
%ADD17O,2.39X1.787*%
%ADD18R,2.39X1.787*%
G04 --- APERTURE LIST END --- *
G04 --- BOARD BEGIN --- *
D10*
X2540000Y13335000D03*
X10160000Y13335000D03*
X7620000Y13335000D03*
D11*
X20320000Y13335000D03*
D10*
X17780000Y13335000D03*
X5080000Y13335000D03*
X15240000Y13335000D03*
X12700000Y13335000D03*
D12*
X2225000Y10625000D03*
X3175000Y8425000D03*
X4125000Y10625000D03*
D13*
X11430000Y8470000D03*
X11430000Y6770000D03*
D14*
X5080000Y7325000D03*
X5080000Y5375000D03*
D15*
X16090000Y5080000D03*
X14390000Y5080000D03*
D16*
X13972500Y7305000D03*
X15872500Y7305000D03*
X13972500Y8255000D03*
X15872500Y9205000D03*
X13972500Y9205000D03*
D14*
X8890000Y7325000D03*
X8890000Y5375000D03*
D12*
X6035000Y10625000D03*
X6985000Y8425000D03*
X7935000Y10625000D03*
D17*
X20002500Y1905000D03*
D18*
X20002500Y6985000D03*
D17*
X22542500Y4445000D03*
X22542500Y1905000D03*
X22542500Y6985000D03*
X20002500Y4445000D03*
D14*
X1270000Y7325000D03*
X1270000Y5375000D03*
D10*
X14605000Y2222500D03*
X9525000Y2222500D03*
X12065000Y2222500D03*
D11*
X1905000Y2222500D03*
D10*
X6985000Y2222500D03*
X4445000Y2222500D03*
G04 --- BOARD END --- *
%TF.MD5,4836168e20c38d0ee7eae21e50879c6e*%
M02*
