G04 --- HEADER BEGIN --- *
%TF.GenerationSoftware,LibrePCB,LibrePCB,0.1.3*%
%TF.CreationDate,2020-05-07T14:01:11*%
%TF.ProjectId,SprigFTDI - default,c1b4763c-5183-4b8f-a850-9e664554c68f,v1*%
%TF.Part,Single*%
%FSLAX66Y66*%
%MOMM*%
G01*
G74*
G04 --- HEADER END --- *
G04 --- APERTURE LIST BEGIN --- *
%ADD10O,1.587X2.19*%
%ADD11R,1.587X2.19*%
%ADD12R,1.0X1.4*%
%ADD13R,1.5X1.3*%
%ADD14R,1.25X0.75*%
%ADD15R,1.3X1.5*%
%ADD16R,1.06X0.65*%
%ADD17O,2.19X1.587*%
%ADD18R,2.19X1.587*%
%ADD19C,0.7*%
%ADD20C,0.3*%
%ADD21C,0.0*%
G04 --- APERTURE LIST END --- *
G04 --- BOARD BEGIN --- *
D10*
X2540000Y13335000D03*
X10160000Y13335000D03*
X7620000Y13335000D03*
D11*
X20320000Y13335000D03*
D10*
X17780000Y13335000D03*
X5080000Y13335000D03*
X15240000Y13335000D03*
X12700000Y13335000D03*
D12*
X2225000Y10625000D03*
X3175000Y8425000D03*
X4125000Y10625000D03*
D13*
X11430000Y8470000D03*
X11430000Y6770000D03*
D14*
X5080000Y7325000D03*
X5080000Y5375000D03*
D15*
X16090000Y5080000D03*
X14390000Y5080000D03*
D16*
X13972500Y7305000D03*
X15872500Y7305000D03*
X13972500Y8255000D03*
X15872500Y9205000D03*
X13972500Y9205000D03*
D14*
X8890000Y7325000D03*
X8890000Y5375000D03*
D12*
X6035000Y10625000D03*
X6985000Y8425000D03*
X7935000Y10625000D03*
D17*
X20002500Y1905000D03*
D18*
X20002500Y6985000D03*
D17*
X22542500Y4445000D03*
X22542500Y1905000D03*
X22542500Y6985000D03*
X20002500Y4445000D03*
D14*
X1270000Y7325000D03*
X1270000Y5375000D03*
D10*
X14605000Y2222500D03*
X9525000Y2222500D03*
X12065000Y2222500D03*
D11*
X1905000Y2222500D03*
D10*
X6985000Y2222500D03*
X4445000Y2222500D03*
D19*
X15240000Y8255000D03*
X7620000Y4762500D03*
X5715000Y4762500D03*
X17780000Y8572500D03*
X6985000Y5715000D03*
X7937500Y8255000D03*
D20*
X2540000Y13335000D02*
X2222500Y13335000D01*
X2225000Y10625000D02*
X1270000Y10625000D01*
X1270000Y7325000D02*
X1270000Y10625000D01*
X2225000Y10625000D02*
X2222500Y13335000D01*
X13017500Y6770000D02*
X13017500Y8255000D01*
X14390000Y5080000D02*
X13017500Y5080000D01*
X14605000Y2222500D02*
X14390000Y5080000D01*
X13972500Y8255000D02*
X13970000Y8255000D01*
X14605000Y2222500D02*
X16510000Y1905000D01*
X13017500Y8255000D02*
X14287500Y8255000D01*
X11430000Y6770000D02*
X13017500Y6770000D01*
X13017500Y5080000D02*
X13017500Y6770000D01*
X14287500Y8255000D02*
X13970000Y8255000D01*
X8890000Y10636250D02*
X7935000Y10625000D01*
X8890000Y7325000D02*
X8890000Y10636250D01*
X8890000Y10636250D02*
X12700000Y10625000D01*
X12700000Y13335000D02*
X12700000Y10625000D01*
X15240000Y8255000D02*
X14922500Y8255000D01*
X15240000Y8255000D02*
X14922500Y8255000D01*
X15240000Y8255000D02*
X16192500Y8255000D01*
X14922500Y8255000D02*
X14922500Y6985000D01*
X14922500Y8255000D02*
X14922500Y8890000D01*
X8890000Y4762500D02*
X7620000Y4762500D01*
X8890000Y5375000D02*
X8890000Y4762500D01*
X5080000Y5375000D02*
X5715000Y5397500D01*
X5715000Y4762500D02*
X5715000Y5397500D01*
X6985000Y6350000D02*
X6985000Y5715000D01*
X15872500Y9205000D02*
X17780000Y9205000D01*
X17780000Y5080000D02*
X15875000Y5080000D01*
X17780000Y5080000D02*
X17780000Y8572500D01*
X6985000Y8425000D02*
X6985000Y6350000D01*
X3492500Y8425000D02*
X3492500Y6350000D01*
X3175000Y8425000D02*
X3492500Y8425000D01*
X17780000Y9205000D02*
X17780000Y9207500D01*
X17780000Y9207500D02*
X17780000Y8572500D01*
X7937500Y8255000D02*
X6985000Y8425000D01*
X3492500Y6350000D02*
X6985000Y6350000D01*
X16090000Y5080000D02*
X15875000Y5080000D01*
X20320000Y13335000D02*
X20320000Y11747500D01*
X22542500Y1905000D02*
X22860000Y635000D01*
X1270000Y3810000D02*
X6985000Y3810000D01*
X1270000Y5375000D02*
X1270000Y3810000D01*
X6985000Y2222500D02*
X6985000Y3810000D01*
X20320000Y3175000D02*
X20002500Y1905000D01*
X24447500Y10795000D02*
X24447500Y3175000D01*
X15240000Y13335000D02*
X15240000Y10795000D01*
X24447500Y3175000D02*
X20320000Y3175000D01*
X15240000Y10795000D02*
X24447500Y10795000D01*
X7620000Y13335000D02*
X6667500Y13335000D01*
X5080000Y7325000D02*
X5397500Y7325000D01*
X5397500Y7325000D02*
X5397500Y10477500D01*
X6032500Y10477500D02*
X6035000Y10625000D01*
X5397500Y10477500D02*
X6032500Y10477500D01*
X6035000Y10625000D02*
X6032500Y11430000D01*
X6667500Y13335000D02*
X6667500Y11430000D01*
X6667500Y11430000D02*
X6032500Y11430000D01*
X10160000Y8470000D02*
X10160000Y8572500D01*
X13970000Y10160000D02*
X13972500Y9205000D01*
X13337500Y9207500D02*
X11430000Y9207500D01*
X11430000Y8470000D02*
X10160000Y8470000D01*
X9525000Y2222500D02*
X9525000Y4445000D01*
X10160000Y8255000D02*
X10160000Y4445000D01*
X10160000Y4445000D02*
X9525000Y4445000D01*
X22542500Y10160000D02*
X13970000Y10160000D01*
X11430000Y9207500D02*
X11430000Y8470000D01*
X13972500Y9205000D02*
X13335000Y9205000D01*
X13335000Y9205000D02*
X13337500Y9207500D01*
X10160000Y8470000D02*
X10160000Y8255000D01*
X22542500Y6985000D02*
X22542500Y10160000D01*
X11430000Y9207500D02*
X11430000Y9525000D01*
D21*
G36*
X779327Y8019500D02*
X820000Y8100000D01*
X820000Y10621430D01*
X820508Y10628535D01*
X823562Y10649775D01*
X824580Y10664006D01*
X824580Y10681888D01*
X826595Y10695903D01*
X831633Y10713060D01*
X834666Y10727003D01*
X837210Y10744699D01*
X841200Y10758288D01*
X848627Y10774552D01*
X853612Y10787916D01*
X858650Y10805071D01*
X864534Y10817957D01*
X874195Y10832989D01*
X881034Y10845513D01*
X888465Y10861785D01*
X896119Y10873695D01*
X907828Y10887208D01*
X916378Y10898628D01*
X926046Y10913672D01*
X935314Y10924367D01*
X948828Y10936076D01*
X958923Y10946171D01*
X970632Y10959685D01*
X981327Y10968953D01*
X996371Y10978621D01*
X1007791Y10987171D01*
X1021304Y10998880D01*
X1033214Y11006534D01*
X1049486Y11013965D01*
X1062010Y11020804D01*
X1077042Y11030465D01*
X1089928Y11036349D01*
X1107083Y11041387D01*
X1120447Y11046372D01*
X1136715Y11053801D01*
X1150295Y11057788D01*
X1167998Y11060334D01*
X1181935Y11063366D01*
X1199098Y11068405D01*
X1213107Y11070419D01*
X1230988Y11070419D01*
X1245220Y11071437D01*
X1266466Y11074492D01*
X1273570Y11075000D01*
X1325000Y11075000D01*
X1384327Y11094500D01*
X1425000Y11175000D01*
X1425000Y11608987D01*
X1426566Y11613752D01*
X1448828Y11625000D01*
X1673986Y11625000D01*
X1733313Y11644500D01*
X1773986Y11725092D01*
X1773534Y12214791D01*
X1740900Y12288603D01*
X1735312Y12293697D01*
X1729104Y12300506D01*
X1613071Y12454159D01*
X1608227Y12461982D01*
X1522400Y12634346D01*
X1519078Y12642921D01*
X1466381Y12828130D01*
X1464692Y12837171D01*
X1446714Y13031194D01*
X1446500Y13035811D01*
X1446500Y13634189D01*
X1446714Y13638806D01*
X1464692Y13832828D01*
X1466381Y13841869D01*
X1519078Y14027078D01*
X1522400Y14035653D01*
X1608227Y14208017D01*
X1613071Y14215840D01*
X1729104Y14369493D01*
X1735314Y14376305D01*
X1877598Y14506012D01*
X1884951Y14511566D01*
X2048660Y14612931D01*
X2056894Y14617030D01*
X2236432Y14686584D01*
X2245300Y14689107D01*
X2434560Y14724486D01*
X2443725Y14725335D01*
X2636274Y14725335D01*
X2645439Y14724486D01*
X2834699Y14689107D01*
X2843567Y14686584D01*
X3023105Y14617030D01*
X3031339Y14612931D01*
X3195048Y14511566D01*
X3202401Y14506012D01*
X3344685Y14376305D01*
X3350895Y14369493D01*
X3466928Y14215840D01*
X3471772Y14208017D01*
X3557599Y14035653D01*
X3560921Y14027078D01*
X3613617Y13841871D01*
X3615308Y13832827D01*
X3633286Y13638805D01*
X3633500Y13634189D01*
X3633500Y13035811D01*
X3633286Y13031195D01*
X3615307Y12837172D01*
X3613617Y12828128D01*
X3560921Y12642921D01*
X3557599Y12634346D01*
X3471772Y12461982D01*
X3466928Y12454159D01*
X3350895Y12300506D01*
X3344685Y12293694D01*
X3202401Y12163987D01*
X3195048Y12158433D01*
X3031339Y12057068D01*
X3023105Y12052969D01*
X2843567Y11983415D01*
X2834699Y11980892D01*
X2755478Y11966083D01*
X2700744Y11936014D01*
X2673853Y11867694D01*
X2673985Y11724908D01*
X2693540Y11665598D01*
X2773985Y11625000D01*
X3008987Y11625000D01*
X3013752Y11623434D01*
X3025000Y11601172D01*
X3025000Y9641013D01*
X3023434Y9636248D01*
X2979904Y9614254D01*
X2935745Y9570095D01*
X2926396Y9508349D01*
X2955502Y9453097D01*
X3025000Y9425000D01*
X3325000Y9425000D01*
X3384327Y9444500D01*
X3420517Y9495395D01*
X3419455Y9557836D01*
X3356225Y9620000D01*
X3336248Y9626566D01*
X3325000Y9648828D01*
X3325000Y11608987D01*
X3326566Y11613752D01*
X3348828Y11625000D01*
X4908987Y11625000D01*
X4913752Y11623434D01*
X4925000Y11601172D01*
X4925000Y10880491D01*
X4944500Y10821164D01*
X4995395Y10784974D01*
X5057836Y10786036D01*
X5091529Y10808876D01*
X5092723Y10807498D01*
X5108827Y10821453D01*
X5123871Y10831121D01*
X5135291Y10839671D01*
X5148804Y10851380D01*
X5160716Y10859035D01*
X5176539Y10866261D01*
X5222406Y10908643D01*
X5235000Y10957225D01*
X5235000Y11608987D01*
X5236566Y11613752D01*
X5258828Y11625000D01*
X5569515Y11625000D01*
X5628842Y11644500D01*
X5653808Y11671198D01*
X5657846Y11677524D01*
X5670065Y11691714D01*
X5678415Y11702905D01*
X5688550Y11718677D01*
X5697816Y11729371D01*
X5710701Y11740536D01*
X5720991Y11750858D01*
X5732093Y11763750D01*
X5742759Y11773051D01*
X5758477Y11783221D01*
X5769640Y11791605D01*
X5783802Y11803877D01*
X5795717Y11811534D01*
X5811218Y11818613D01*
X5824003Y11825620D01*
X5838289Y11834864D01*
X5851151Y11840786D01*
X5869092Y11846115D01*
X5882160Y11851012D01*
X5899214Y11858800D01*
X5912799Y11862789D01*
X5929666Y11865214D01*
X5943903Y11868334D01*
X5960221Y11873180D01*
X5974223Y11875238D01*
X5992944Y11875296D01*
X6006868Y11876314D01*
X6028969Y11879492D01*
X6036070Y11880000D01*
X6117500Y11880000D01*
X6176827Y11899500D01*
X6217500Y11980000D01*
X6217500Y12449967D01*
X6198000Y12509294D01*
X6147105Y12545484D01*
X6084664Y12544422D01*
X6027984Y12494541D01*
X6011772Y12461982D01*
X6006928Y12454159D01*
X5890895Y12300506D01*
X5884685Y12293694D01*
X5742401Y12163987D01*
X5735048Y12158433D01*
X5571339Y12057068D01*
X5563105Y12052969D01*
X5383567Y11983415D01*
X5374699Y11980892D01*
X5185439Y11945513D01*
X5176274Y11944664D01*
X4983725Y11944664D01*
X4974560Y11945513D01*
X4785300Y11980892D01*
X4776432Y11983415D01*
X4596894Y12052969D01*
X4588660Y12057068D01*
X4424951Y12158433D01*
X4417598Y12163987D01*
X4275314Y12293694D01*
X4269104Y12300506D01*
X4153071Y12454159D01*
X4148227Y12461982D01*
X4062400Y12634346D01*
X4059078Y12642921D01*
X4006381Y12828130D01*
X4004692Y12837171D01*
X3986714Y13031194D01*
X3986500Y13035811D01*
X3986500Y13634189D01*
X3986714Y13638806D01*
X4004692Y13832828D01*
X4006381Y13841869D01*
X4059078Y14027078D01*
X4062400Y14035653D01*
X4148227Y14208017D01*
X4153071Y14215840D01*
X4269104Y14369493D01*
X4275314Y14376305D01*
X4417598Y14506012D01*
X4424951Y14511566D01*
X4588660Y14612931D01*
X4596894Y14617030D01*
X4776432Y14686584D01*
X4785300Y14689107D01*
X4974560Y14724486D01*
X4983725Y14725335D01*
X5176274Y14725335D01*
X5185439Y14724486D01*
X5374699Y14689107D01*
X5383567Y14686584D01*
X5563105Y14617030D01*
X5571339Y14612931D01*
X5735048Y14511566D01*
X5742401Y14506012D01*
X5884685Y14376305D01*
X5890895Y14369493D01*
X6006928Y14215840D01*
X6011772Y14208017D01*
X6097599Y14035653D01*
X6100921Y14027078D01*
X6153617Y13841871D01*
X6155308Y13832827D01*
X6167565Y13700551D01*
X6192456Y13643276D01*
X6246473Y13611937D01*
X6332620Y13634200D01*
X6346327Y13646076D01*
X6356423Y13656171D01*
X6368132Y13669685D01*
X6378827Y13678953D01*
X6393871Y13688621D01*
X6405291Y13697171D01*
X6418804Y13708880D01*
X6430714Y13716534D01*
X6446986Y13723965D01*
X6459510Y13730804D01*
X6474546Y13740467D01*
X6486170Y13745776D01*
X6532035Y13788161D01*
X6544199Y13827512D01*
X6544692Y13832828D01*
X6546381Y13841869D01*
X6599078Y14027078D01*
X6602400Y14035653D01*
X6688227Y14208017D01*
X6693071Y14215840D01*
X6809104Y14369493D01*
X6815314Y14376305D01*
X6957598Y14506012D01*
X6964951Y14511566D01*
X7128660Y14612931D01*
X7136894Y14617030D01*
X7316432Y14686584D01*
X7325300Y14689107D01*
X7514560Y14724486D01*
X7523725Y14725335D01*
X7716274Y14725335D01*
X7725439Y14724486D01*
X7914699Y14689107D01*
X7923567Y14686584D01*
X8103105Y14617030D01*
X8111339Y14612931D01*
X8275048Y14511566D01*
X8282401Y14506012D01*
X8424685Y14376305D01*
X8430895Y14369493D01*
X8546928Y14215840D01*
X8551772Y14208017D01*
X8637599Y14035653D01*
X8640921Y14027078D01*
X8693617Y13841871D01*
X8695308Y13832827D01*
X8713286Y13638805D01*
X8713500Y13634189D01*
X8713500Y13035811D01*
X8713286Y13031195D01*
X8695307Y12837172D01*
X8693617Y12828128D01*
X8640921Y12642921D01*
X8637599Y12634346D01*
X8551772Y12461982D01*
X8546928Y12454159D01*
X8430895Y12300506D01*
X8424685Y12293694D01*
X8282401Y12163987D01*
X8275048Y12158433D01*
X8111339Y12057068D01*
X8103105Y12052969D01*
X7923567Y11983415D01*
X7914699Y11980892D01*
X7725439Y11945513D01*
X7716274Y11944664D01*
X7523725Y11944664D01*
X7514560Y11945513D01*
X7325300Y11980892D01*
X7316432Y11983416D01*
X7253624Y12007747D01*
X7191258Y12010995D01*
X7139127Y11976610D01*
X7117500Y11914500D01*
X7117500Y11725000D01*
X7137000Y11665673D01*
X7217500Y11625000D01*
X8718987Y11625000D01*
X8723752Y11623434D01*
X8735000Y11601172D01*
X8735000Y11185640D01*
X8754500Y11126313D01*
X8836177Y11085647D01*
X8881125Y11086176D01*
X8881592Y11086148D01*
X8894421Y11086204D01*
X8894908Y11086237D01*
X10063725Y11082785D01*
X10063725Y11944664D01*
X10054560Y11945513D01*
X9865300Y11980892D01*
X9856432Y11983415D01*
X9676894Y12052969D01*
X9668660Y12057068D01*
X9504951Y12158433D01*
X9497598Y12163987D01*
X9355314Y12293694D01*
X9349104Y12300506D01*
X9233071Y12454159D01*
X9228227Y12461982D01*
X9142400Y12634346D01*
X9139078Y12642921D01*
X9086381Y12828130D01*
X9084692Y12837171D01*
X9066714Y13031194D01*
X9066500Y13035811D01*
X9066500Y13634189D01*
X9066714Y13638806D01*
X9084692Y13832828D01*
X9086381Y13841869D01*
X9139078Y14027078D01*
X9142400Y14035653D01*
X9228227Y14208017D01*
X9233071Y14215840D01*
X9349104Y14369493D01*
X9355314Y14376305D01*
X9497598Y14506012D01*
X9504951Y14511566D01*
X9668660Y14612931D01*
X9676894Y14617030D01*
X9856432Y14686584D01*
X9865300Y14689107D01*
X10054560Y14724486D01*
X10063725Y14725335D01*
X10256274Y14725335D01*
X10265439Y14724486D01*
X10454699Y14689107D01*
X10463567Y14686584D01*
X10643105Y14617030D01*
X10651339Y14612931D01*
X10815048Y14511566D01*
X10822401Y14506012D01*
X10964685Y14376305D01*
X10970895Y14369493D01*
X11086928Y14215840D01*
X11091772Y14208017D01*
X11177599Y14035653D01*
X11180921Y14027078D01*
X11233617Y13841871D01*
X11235308Y13832827D01*
X11253286Y13638805D01*
X11253500Y13634189D01*
X11253500Y13035811D01*
X11253286Y13031195D01*
X11235307Y12837172D01*
X11233617Y12828128D01*
X11180921Y12642921D01*
X11177599Y12634346D01*
X11091772Y12461982D01*
X11086928Y12454159D01*
X10970895Y12300506D01*
X10964685Y12293694D01*
X10822401Y12163987D01*
X10815048Y12158433D01*
X10651339Y12057068D01*
X10643105Y12052969D01*
X10463567Y11983415D01*
X10454699Y11980892D01*
X10265439Y11945513D01*
X10256274Y11944664D01*
X10063725Y11944664D01*
X10063725Y11082785D01*
X12149705Y11076627D01*
X12209090Y11095952D01*
X12250000Y11176627D01*
X12250000Y11975771D01*
X12230500Y12035098D01*
X12202644Y12060792D01*
X12044958Y12158428D01*
X12037598Y12163987D01*
X11895314Y12293694D01*
X11889104Y12300506D01*
X11773071Y12454159D01*
X11768227Y12461982D01*
X11682400Y12634346D01*
X11679078Y12642921D01*
X11626381Y12828130D01*
X11624692Y12837171D01*
X11606714Y13031194D01*
X11606500Y13035811D01*
X11606500Y13634189D01*
X11606714Y13638806D01*
X11624692Y13832828D01*
X11626381Y13841869D01*
X11679078Y14027078D01*
X11682400Y14035653D01*
X11768227Y14208017D01*
X11773071Y14215840D01*
X11889104Y14369493D01*
X11895314Y14376305D01*
X12037598Y14506012D01*
X12044951Y14511566D01*
X12208660Y14612931D01*
X12216894Y14617030D01*
X12396432Y14686584D01*
X12405300Y14689107D01*
X12594560Y14724486D01*
X12603725Y14725335D01*
X12796274Y14725335D01*
X12805439Y14724486D01*
X12994699Y14689107D01*
X13003567Y14686584D01*
X13183105Y14617030D01*
X13191339Y14612931D01*
X13355048Y14511566D01*
X13362401Y14506012D01*
X13504685Y14376305D01*
X13510895Y14369493D01*
X13626928Y14215840D01*
X13631772Y14208017D01*
X13717599Y14035653D01*
X13720921Y14027078D01*
X13773617Y13841871D01*
X13775308Y13832827D01*
X13793286Y13638805D01*
X13793500Y13634189D01*
X13793500Y13035811D01*
X13793286Y13031195D01*
X13775307Y12837172D01*
X13773617Y12828128D01*
X13720921Y12642921D01*
X13717599Y12634346D01*
X13631772Y12461982D01*
X13626928Y12454159D01*
X13510895Y12300506D01*
X13504685Y12293694D01*
X13362401Y12163987D01*
X13355044Y12158430D01*
X13197357Y12060794D01*
X13157181Y12012982D01*
X13150000Y11975772D01*
X13150000Y10628570D01*
X13149492Y10621468D01*
X13146321Y10599415D01*
X13145303Y10585476D01*
X13145248Y10566792D01*
X13143191Y10552785D01*
X13138336Y10536428D01*
X13135219Y10522202D01*
X13132789Y10505300D01*
X13128801Y10491717D01*
X13121031Y10474703D01*
X13116129Y10461619D01*
X13110812Y10443707D01*
X13104894Y10430849D01*
X13095628Y10416523D01*
X13088631Y10403755D01*
X13081533Y10388212D01*
X13073882Y10376308D01*
X13061636Y10362175D01*
X13053246Y10351001D01*
X13043102Y10335319D01*
X13033793Y10324640D01*
X13020867Y10313506D01*
X13010557Y10303227D01*
X12999368Y10290314D01*
X12988670Y10281045D01*
X12972942Y10270937D01*
X12961742Y10262579D01*
X12947587Y10250386D01*
X12935654Y10242767D01*
X12920107Y10235723D01*
X12907314Y10228762D01*
X12892950Y10219530D01*
X12880074Y10213650D01*
X12862134Y10208382D01*
X12849036Y10203519D01*
X12832015Y10195807D01*
X12818414Y10191856D01*
X12801514Y10189477D01*
X12787286Y10186404D01*
X12770904Y10181594D01*
X12756892Y10179580D01*
X12738198Y10179580D01*
X12724259Y10178604D01*
X12702206Y10175500D01*
X12695100Y10175013D01*
X9440295Y10184623D01*
X9380910Y10165298D01*
X9340000Y10084623D01*
X9340000Y8100000D01*
X9359500Y8040673D01*
X9440000Y8000000D01*
X9610000Y8000000D01*
X9669327Y8019500D01*
X9710000Y8100000D01*
X9710000Y8568930D01*
X9710508Y8576035D01*
X9727210Y8692200D01*
X9731199Y8705785D01*
X9778463Y8809281D01*
X9786119Y8821194D01*
X9860627Y8907181D01*
X9871331Y8916455D01*
X9967046Y8977967D01*
X9979925Y8983849D01*
X10089093Y9015903D01*
X10103111Y9017919D01*
X10216888Y9017919D01*
X10230903Y9015904D01*
X10251826Y9009760D01*
X10314244Y9011755D01*
X10363307Y9050392D01*
X10380000Y9105709D01*
X10380000Y9403987D01*
X10381566Y9408752D01*
X10403828Y9420000D01*
X10880000Y9420000D01*
X10939327Y9439500D01*
X10978950Y9517922D01*
X10979745Y9517865D01*
X10979881Y9519764D01*
X10980000Y9520000D01*
X10980000Y9521430D01*
X10980508Y9528535D01*
X10997210Y9644700D01*
X11001199Y9658285D01*
X11048463Y9761781D01*
X11056119Y9773694D01*
X11130627Y9859681D01*
X11141331Y9868955D01*
X11237046Y9930467D01*
X11249925Y9936349D01*
X11359093Y9968403D01*
X11373111Y9970419D01*
X11486888Y9970419D01*
X11500906Y9968403D01*
X11610074Y9936349D01*
X11622953Y9930467D01*
X11718668Y9868955D01*
X11729372Y9859681D01*
X11803880Y9773694D01*
X11811536Y9761781D01*
X11832461Y9715960D01*
X11874844Y9670094D01*
X11923425Y9657500D01*
X13042500Y9657500D01*
X13101827Y9677000D01*
X13142500Y9757500D01*
X13142500Y9813987D01*
X13144066Y9818752D01*
X13166328Y9830000D01*
X13420600Y9830000D01*
X13479927Y9849500D01*
X13520600Y9930262D01*
X13520011Y10155257D01*
X13520500Y10162353D01*
X13523599Y10184313D01*
X13524580Y10198285D01*
X13524580Y10216888D01*
X13526595Y10230904D01*
X13531432Y10247377D01*
X13534501Y10261574D01*
X13536899Y10278563D01*
X13540853Y10292162D01*
X13548529Y10309088D01*
X13553406Y10322216D01*
X13558649Y10340071D01*
X13564531Y10352951D01*
X13573815Y10367397D01*
X13580761Y10380158D01*
X13587848Y10395784D01*
X13595469Y10407713D01*
X13607607Y10421795D01*
X13615984Y10433016D01*
X13626045Y10448670D01*
X13635316Y10459370D01*
X13648294Y10470615D01*
X13658554Y10480902D01*
X13669753Y10493895D01*
X13680430Y10503197D01*
X13696042Y10513287D01*
X13707246Y10521697D01*
X13721306Y10533880D01*
X13733215Y10541534D01*
X13748831Y10548665D01*
X13761576Y10555646D01*
X13775986Y10564960D01*
X13788847Y10570874D01*
X13806676Y10576160D01*
X13819792Y10581071D01*
X13836719Y10588801D01*
X13850299Y10592789D01*
X13867296Y10595233D01*
X13881484Y10598339D01*
X13897937Y10603217D01*
X13911942Y10605268D01*
X13930539Y10605317D01*
X13944505Y10606335D01*
X13966462Y10609492D01*
X13973570Y10610000D01*
X14697594Y10610000D01*
X14756921Y10629500D01*
X14793111Y10680395D01*
X14796576Y10724235D01*
X14794580Y10738114D01*
X14794580Y10755994D01*
X14793562Y10770225D01*
X14790508Y10791465D01*
X14790000Y10798567D01*
X14790000Y11975771D01*
X14770500Y12035098D01*
X14742644Y12060792D01*
X14584958Y12158428D01*
X14577598Y12163987D01*
X14435314Y12293694D01*
X14429104Y12300506D01*
X14313071Y12454159D01*
X14308227Y12461982D01*
X14222400Y12634346D01*
X14219078Y12642921D01*
X14166381Y12828130D01*
X14164692Y12837171D01*
X14146714Y13031194D01*
X14146500Y13035811D01*
X14146500Y13634189D01*
X14146714Y13638806D01*
X14164692Y13832828D01*
X14166381Y13841869D01*
X14219078Y14027078D01*
X14222400Y14035653D01*
X14308227Y14208017D01*
X14313071Y14215840D01*
X14429104Y14369493D01*
X14435314Y14376305D01*
X14577598Y14506012D01*
X14584951Y14511566D01*
X14748660Y14612931D01*
X14756894Y14617030D01*
X14936432Y14686584D01*
X14945300Y14689107D01*
X15134560Y14724486D01*
X15143725Y14725335D01*
X15336274Y14725335D01*
X15345439Y14724486D01*
X15534699Y14689107D01*
X15543567Y14686584D01*
X15723105Y14617030D01*
X15731339Y14612931D01*
X15895048Y14511566D01*
X15902401Y14506012D01*
X16044685Y14376305D01*
X16050895Y14369493D01*
X16166928Y14215840D01*
X16171772Y14208017D01*
X16257599Y14035653D01*
X16260921Y14027078D01*
X16313617Y13841871D01*
X16315308Y13832827D01*
X16333286Y13638805D01*
X16333500Y13634189D01*
X16333500Y13035811D01*
X16333286Y13031195D01*
X16315307Y12837172D01*
X16313617Y12828128D01*
X16260921Y12642921D01*
X16257599Y12634346D01*
X16171772Y12461982D01*
X16166928Y12454159D01*
X16050895Y12300506D01*
X16044685Y12293694D01*
X15902401Y12163987D01*
X15895044Y12158430D01*
X15737357Y12060794D01*
X15697181Y12012982D01*
X15690000Y11975772D01*
X15690000Y11345000D01*
X15709500Y11285673D01*
X15790000Y11245000D01*
X17683725Y11245000D01*
X17683725Y11944664D01*
X17674560Y11945513D01*
X17485300Y11980892D01*
X17476432Y11983415D01*
X17296894Y12052969D01*
X17288660Y12057068D01*
X17124951Y12158433D01*
X17117598Y12163987D01*
X16975314Y12293694D01*
X16969104Y12300506D01*
X16853071Y12454159D01*
X16848227Y12461982D01*
X16762400Y12634346D01*
X16759078Y12642921D01*
X16706381Y12828130D01*
X16704692Y12837171D01*
X16686714Y13031194D01*
X16686500Y13035811D01*
X16686500Y13634189D01*
X16686714Y13638806D01*
X16704692Y13832828D01*
X16706381Y13841869D01*
X16759078Y14027078D01*
X16762400Y14035653D01*
X16848227Y14208017D01*
X16853071Y14215840D01*
X16969104Y14369493D01*
X16975314Y14376305D01*
X17117598Y14506012D01*
X17124951Y14511566D01*
X17288660Y14612931D01*
X17296894Y14617030D01*
X17476432Y14686584D01*
X17485300Y14689107D01*
X17674560Y14724486D01*
X17683725Y14725335D01*
X17876274Y14725335D01*
X17885439Y14724486D01*
X18074699Y14689107D01*
X18083567Y14686584D01*
X18263105Y14617030D01*
X18271339Y14612931D01*
X18435048Y14511566D01*
X18442401Y14506012D01*
X18584685Y14376305D01*
X18590895Y14369493D01*
X18706928Y14215840D01*
X18711772Y14208017D01*
X18797599Y14035653D01*
X18800921Y14027078D01*
X18853617Y13841871D01*
X18855308Y13832827D01*
X18873286Y13638805D01*
X18873500Y13634189D01*
X18873500Y13035811D01*
X18873286Y13031195D01*
X18855307Y12837172D01*
X18853617Y12828128D01*
X18800921Y12642921D01*
X18797599Y12634346D01*
X18711772Y12461982D01*
X18706928Y12454159D01*
X18590895Y12300506D01*
X18584685Y12293694D01*
X18442401Y12163987D01*
X18435048Y12158433D01*
X18271339Y12057068D01*
X18263105Y12052969D01*
X18083567Y11983415D01*
X18074699Y11980892D01*
X17885439Y11945513D01*
X17876274Y11944664D01*
X17683725Y11944664D01*
X17683725Y11245000D01*
X19242513Y11245000D01*
X19242513Y11940000D01*
X19237748Y11941566D01*
X19226500Y11963828D01*
X19226500Y14713987D01*
X19228066Y14718752D01*
X19250328Y14730000D01*
X21397487Y14730000D01*
X21402252Y14728434D01*
X21413500Y14706172D01*
X21413500Y11956013D01*
X21411934Y11951248D01*
X21389672Y11940000D01*
X19242513Y11940000D01*
X19242513Y11245000D01*
X24443930Y11245000D01*
X24451034Y11244492D01*
X24472280Y11241437D01*
X24486512Y11240419D01*
X24504392Y11240419D01*
X24518401Y11238405D01*
X24535564Y11233366D01*
X24549501Y11230334D01*
X24567200Y11227789D01*
X24571828Y11226430D01*
X24634246Y11228427D01*
X24683308Y11267065D01*
X24700000Y11322380D01*
X24700000Y15475000D01*
X24680500Y15534327D01*
X24600000Y15575000D01*
X400000Y15575000D01*
X340673Y15555500D01*
X300000Y15475000D01*
X300000Y8100000D01*
X319500Y8040673D01*
X400000Y8000000D01*
X720000Y8000000D01*
X779327Y8019500D01*
G37*
G36*
X7194327Y9444500D02*
X7230517Y9495395D01*
X7229455Y9557836D01*
X7166225Y9620000D01*
X7146248Y9626566D01*
X7135000Y9648828D01*
X7135000Y11022033D01*
X7115500Y11081360D01*
X7064605Y11117550D01*
X7002164Y11116488D01*
X6969512Y11097606D01*
X6956172Y11086046D01*
X6941128Y11076378D01*
X6929708Y11067828D01*
X6916195Y11056119D01*
X6904284Y11048464D01*
X6893458Y11043520D01*
X6847593Y11001136D01*
X6835000Y10952557D01*
X6835000Y9641013D01*
X6833434Y9636248D01*
X6789904Y9614254D01*
X6745745Y9570095D01*
X6736396Y9508349D01*
X6765502Y9453097D01*
X6835000Y9425000D01*
X7135000Y9425000D01*
X7194327Y9444500D01*
G37*
G36*
X23975142Y7478806D02*
X23997500Y7541827D01*
X23997500Y10245000D01*
X23978000Y10304327D01*
X23897500Y10345000D01*
X23084906Y10345000D01*
X23025579Y10325500D01*
X22989389Y10274605D01*
X22985924Y10230771D01*
X22987919Y10216893D01*
X22987919Y10199012D01*
X22988937Y10184780D01*
X22991992Y10163534D01*
X22992500Y10156430D01*
X22992500Y8150316D01*
X23012000Y8090989D01*
X23065133Y8054134D01*
X23234568Y8005925D01*
X23243153Y8002599D01*
X23415517Y7916772D01*
X23423340Y7911928D01*
X23576993Y7795895D01*
X23583805Y7789685D01*
X23713512Y7647401D01*
X23719066Y7640048D01*
X23812478Y7489183D01*
X23860290Y7449008D01*
X23922613Y7445032D01*
X23975142Y7478806D01*
G37*
G36*
X24659327Y319500D02*
X24700000Y400000D01*
X24700000Y2647619D01*
X24680500Y2706946D01*
X24629605Y2743136D01*
X24571833Y2743570D01*
X24567202Y2742211D01*
X24549503Y2739666D01*
X24535560Y2736633D01*
X24518403Y2731595D01*
X24504388Y2729580D01*
X24486506Y2729580D01*
X24472275Y2728562D01*
X24451035Y2725508D01*
X24443930Y2725000D01*
X23795327Y2725000D01*
X23736000Y2705500D01*
X23699810Y2654605D01*
X23715529Y2564732D01*
X23719061Y2560055D01*
X23820431Y2396339D01*
X23824530Y2388105D01*
X23894084Y2208567D01*
X23896607Y2199699D01*
X23931986Y2010439D01*
X23932835Y2001274D01*
X23932835Y1808725D01*
X23931986Y1799560D01*
X23896607Y1610300D01*
X23894084Y1601432D01*
X23824530Y1421894D01*
X23820431Y1413660D01*
X23719066Y1249951D01*
X23713512Y1242598D01*
X23583805Y1100314D01*
X23576993Y1094104D01*
X23423340Y978071D01*
X23415517Y973227D01*
X23243153Y887400D01*
X23234578Y884078D01*
X23049369Y831381D01*
X23040328Y829692D01*
X22846306Y811714D01*
X22841689Y811500D01*
X22243311Y811500D01*
X22238694Y811714D01*
X22044671Y829692D01*
X22035630Y831381D01*
X21850421Y884078D01*
X21841846Y887400D01*
X21669482Y973227D01*
X21661659Y978071D01*
X21508006Y1094104D01*
X21501194Y1100314D01*
X21371487Y1242598D01*
X21365930Y1249956D01*
X21357520Y1263538D01*
X21309708Y1303714D01*
X21247385Y1307689D01*
X21187477Y1263536D01*
X21179065Y1249950D01*
X21173516Y1242602D01*
X21043805Y1100314D01*
X21036993Y1094104D01*
X20883340Y978071D01*
X20875517Y973227D01*
X20703153Y887400D01*
X20694578Y884078D01*
X20509369Y831381D01*
X20500328Y829692D01*
X20306306Y811714D01*
X20301689Y811500D01*
X19703311Y811500D01*
X19698694Y811714D01*
X19504671Y829692D01*
X19495630Y831381D01*
X19310421Y884078D01*
X19301846Y887400D01*
X19129482Y973227D01*
X19121659Y978071D01*
X18968006Y1094104D01*
X18961194Y1100314D01*
X18831487Y1242598D01*
X18825933Y1249951D01*
X18724568Y1413660D01*
X18720469Y1421894D01*
X18650915Y1601432D01*
X18648392Y1610300D01*
X18613013Y1799560D01*
X18612164Y1808725D01*
X18612164Y2001274D01*
X18613013Y2010439D01*
X18648392Y2199699D01*
X18650915Y2208567D01*
X18720469Y2388105D01*
X18724568Y2396339D01*
X18825933Y2560048D01*
X18831487Y2567401D01*
X18961194Y2709685D01*
X18968006Y2715895D01*
X19121659Y2831928D01*
X19129482Y2836772D01*
X19301846Y2922599D01*
X19310421Y2925921D01*
X19495628Y2978617D01*
X19504672Y2980307D01*
X19698695Y2998286D01*
X19703311Y2998500D01*
X19733949Y2998500D01*
X19793276Y3018000D01*
X19830963Y3074246D01*
X19869213Y3227246D01*
X19864684Y3289532D01*
X19824086Y3336985D01*
X19772199Y3351500D01*
X19703311Y3351500D01*
X19698694Y3351714D01*
X19504671Y3369692D01*
X19495630Y3371381D01*
X19310421Y3424078D01*
X19301846Y3427400D01*
X19129482Y3513227D01*
X19121659Y3518071D01*
X18968006Y3634104D01*
X18961194Y3640314D01*
X18831487Y3782598D01*
X18825933Y3789951D01*
X18724568Y3953660D01*
X18720469Y3961894D01*
X18650915Y4141432D01*
X18648392Y4150300D01*
X18613013Y4339560D01*
X18612164Y4348725D01*
X18612164Y4541274D01*
X18613013Y4550439D01*
X18648392Y4739699D01*
X18650915Y4748567D01*
X18720469Y4928105D01*
X18724568Y4936339D01*
X18825933Y5100048D01*
X18831487Y5107401D01*
X18961194Y5249685D01*
X18968006Y5255895D01*
X19121659Y5371928D01*
X19129482Y5376772D01*
X19301846Y5462599D01*
X19310421Y5465921D01*
X19495628Y5518617D01*
X19504672Y5520307D01*
X19698695Y5538286D01*
X19703311Y5538500D01*
X20301689Y5538500D01*
X20306305Y5538286D01*
X20500327Y5520308D01*
X20509371Y5518617D01*
X20694578Y5465921D01*
X20703153Y5462599D01*
X20875517Y5376772D01*
X20883340Y5371928D01*
X21036993Y5255895D01*
X21043805Y5249685D01*
X21173516Y5107397D01*
X21179065Y5100049D01*
X21187477Y5086463D01*
X21235287Y5046286D01*
X21297610Y5042309D01*
X21357520Y5086461D01*
X21365930Y5100043D01*
X21371487Y5107401D01*
X21501194Y5249685D01*
X21508006Y5255895D01*
X21661659Y5371928D01*
X21669482Y5376772D01*
X21841846Y5462599D01*
X21850421Y5465921D01*
X22035628Y5518617D01*
X22044672Y5520307D01*
X22238695Y5538286D01*
X22243311Y5538500D01*
X22841689Y5538500D01*
X22846305Y5538286D01*
X23040327Y5520308D01*
X23049371Y5518617D01*
X23234578Y5465921D01*
X23243153Y5462599D01*
X23415517Y5376772D01*
X23423340Y5371928D01*
X23576993Y5255895D01*
X23583805Y5249685D01*
X23713512Y5107401D01*
X23719066Y5100048D01*
X23812478Y4949183D01*
X23860290Y4909008D01*
X23922613Y4905032D01*
X23975142Y4938806D01*
X23997500Y5001827D01*
X23997500Y6428172D01*
X23978000Y6487499D01*
X23927105Y6523689D01*
X23864664Y6522627D01*
X23812478Y6480816D01*
X23719066Y6329951D01*
X23713512Y6322598D01*
X23583805Y6180314D01*
X23576993Y6174104D01*
X23423340Y6058071D01*
X23415517Y6053227D01*
X23243153Y5967400D01*
X23234578Y5964078D01*
X23049369Y5911381D01*
X23040328Y5909692D01*
X22846306Y5891714D01*
X22841689Y5891500D01*
X22243311Y5891500D01*
X22238694Y5891714D01*
X22044671Y5909692D01*
X22035630Y5911381D01*
X21850421Y5964078D01*
X21841846Y5967400D01*
X21669482Y6053227D01*
X21661665Y6058067D01*
X21557764Y6136530D01*
X21498668Y6156721D01*
X21439117Y6137915D01*
X21397500Y6056728D01*
X21397500Y5907513D01*
X21395934Y5902748D01*
X21373672Y5891500D01*
X18623513Y5891500D01*
X18618748Y5893066D01*
X18607500Y5915328D01*
X18607500Y8062487D01*
X18609066Y8067252D01*
X18631328Y8078500D01*
X21381487Y8078500D01*
X21386252Y8076934D01*
X21397500Y8054672D01*
X21397500Y7913271D01*
X21417000Y7853944D01*
X21467895Y7817754D01*
X21557764Y7833469D01*
X21661665Y7911932D01*
X21669482Y7916772D01*
X21841846Y8002599D01*
X21850431Y8005925D01*
X22019867Y8054134D01*
X22071593Y8089125D01*
X22092500Y8150316D01*
X22092500Y9610000D01*
X22073000Y9669327D01*
X21992500Y9710000D01*
X18152925Y9710000D01*
X18093598Y9690500D01*
X18057408Y9639605D01*
X18058470Y9577164D01*
X18077350Y9544514D01*
X18099774Y9518635D01*
X18109863Y9508546D01*
X18114682Y9504370D01*
X18123954Y9493670D01*
X18127397Y9488312D01*
X18135948Y9476889D01*
X18153878Y9456196D01*
X18161535Y9444281D01*
X18172907Y9419380D01*
X18179746Y9406855D01*
X18185469Y9397950D01*
X18191348Y9385076D01*
X18194330Y9374922D01*
X18199315Y9361556D01*
X18208800Y9340786D01*
X18212789Y9327200D01*
X18216038Y9304601D01*
X18219071Y9290657D01*
X18223404Y9275901D01*
X18225419Y9261888D01*
X18225419Y9246512D01*
X18226437Y9232280D01*
X18229492Y9211034D01*
X18230000Y9203930D01*
X18230000Y9080900D01*
X18260124Y9013958D01*
X18257992Y9012069D01*
X18269966Y8998553D01*
X18352111Y8879546D01*
X18357689Y8868919D01*
X18408970Y8733703D01*
X18411840Y8722057D01*
X18429271Y8578504D01*
X18429271Y8566496D01*
X18411840Y8422942D01*
X18408970Y8411296D01*
X18357689Y8276080D01*
X18352111Y8265453D01*
X18269966Y8146446D01*
X18257992Y8132930D01*
X18260124Y8131041D01*
X18230000Y8064099D01*
X18230000Y5083570D01*
X18229492Y5076466D01*
X18226437Y5055220D01*
X18225419Y5040988D01*
X18225419Y5023107D01*
X18223405Y5009098D01*
X18218366Y4991935D01*
X18215334Y4977998D01*
X18212788Y4960295D01*
X18208801Y4946715D01*
X18201372Y4930447D01*
X18196387Y4917083D01*
X18191349Y4899928D01*
X18185465Y4887042D01*
X18175804Y4872010D01*
X18168965Y4859486D01*
X18161534Y4843214D01*
X18153880Y4831304D01*
X18142171Y4817791D01*
X18133621Y4806371D01*
X18123953Y4791327D01*
X18114685Y4780632D01*
X18101171Y4768923D01*
X18091076Y4758828D01*
X18079367Y4745314D01*
X18068672Y4736046D01*
X18053628Y4726378D01*
X18042208Y4717828D01*
X18028695Y4706119D01*
X18016785Y4698465D01*
X18000513Y4691034D01*
X17987989Y4684195D01*
X17972957Y4674534D01*
X17960071Y4668650D01*
X17942916Y4663612D01*
X17929552Y4658627D01*
X17913288Y4651200D01*
X17899699Y4647210D01*
X17882003Y4644666D01*
X17868060Y4641633D01*
X17850903Y4636595D01*
X17836888Y4634580D01*
X17819006Y4634580D01*
X17804775Y4633562D01*
X17783535Y4630508D01*
X17776430Y4630000D01*
X17140000Y4630000D01*
X17080673Y4610500D01*
X17040000Y4530000D01*
X17040000Y4046013D01*
X17038434Y4041248D01*
X17016172Y4030000D01*
X13456013Y4030000D01*
X13451248Y4031566D01*
X13440000Y4053828D01*
X13440000Y6113987D01*
X13441566Y6118752D01*
X13463828Y6130000D01*
X17023987Y6130000D01*
X17028752Y6128434D01*
X17040000Y6106172D01*
X17040000Y5630000D01*
X17059500Y5570673D01*
X17140000Y5530000D01*
X17230000Y5530000D01*
X17289327Y5549500D01*
X17330000Y5630000D01*
X17330000Y8064099D01*
X17299870Y8131037D01*
X17302007Y8132930D01*
X17290033Y8146446D01*
X17207888Y8265453D01*
X17202310Y8276080D01*
X17151031Y8411290D01*
X17148158Y8422949D01*
X17130729Y8566496D01*
X17130729Y8578504D01*
X17138553Y8642947D01*
X17126346Y8704193D01*
X17080183Y8746253D01*
X17039282Y8755000D01*
X16802500Y8755000D01*
X16743173Y8735500D01*
X16702500Y8655000D01*
X16702500Y8596013D01*
X16700934Y8591248D01*
X16678672Y8580000D01*
X15951726Y8580000D01*
X15892399Y8560500D01*
X15856209Y8509605D01*
X15858224Y8444541D01*
X15868968Y8416210D01*
X15871840Y8404557D01*
X15889271Y8261004D01*
X15889271Y8248996D01*
X15871840Y8105442D01*
X15868969Y8093793D01*
X15858224Y8065460D01*
X15855419Y8003073D01*
X15890174Y7951188D01*
X15951726Y7930000D01*
X16686487Y7930000D01*
X16691252Y7928434D01*
X16702500Y7906172D01*
X16702500Y6696013D01*
X16700934Y6691248D01*
X16678672Y6680000D01*
X15058513Y6680000D01*
X15053748Y6681566D01*
X15042500Y6703828D01*
X15042500Y7569470D01*
X15023000Y7628797D01*
X14988973Y7658015D01*
X14948973Y7679009D01*
X14887379Y7689314D01*
X14831682Y7661068D01*
X14802500Y7590464D01*
X14802500Y6696013D01*
X14800934Y6691248D01*
X14778672Y6680000D01*
X13158513Y6680000D01*
X13153748Y6681566D01*
X13142500Y6703828D01*
X13142500Y8657500D01*
X13123000Y8716827D01*
X13042500Y8757500D01*
X12580000Y8757500D01*
X12520673Y8738000D01*
X12480000Y8657500D01*
X12480000Y5836013D01*
X12478434Y5831248D01*
X12456172Y5820000D01*
X10710000Y5820000D01*
X10650673Y5800500D01*
X10610000Y5720000D01*
X10610000Y4448570D01*
X10609492Y4441466D01*
X10606437Y4420220D01*
X10605419Y4405988D01*
X10605419Y4388107D01*
X10603405Y4374098D01*
X10598366Y4356935D01*
X10595334Y4342998D01*
X10592788Y4325295D01*
X10588801Y4311715D01*
X10581372Y4295447D01*
X10576387Y4282083D01*
X10571349Y4264928D01*
X10565465Y4252042D01*
X10555804Y4237010D01*
X10548965Y4224486D01*
X10541534Y4208214D01*
X10533880Y4196304D01*
X10522171Y4182791D01*
X10513621Y4171371D01*
X10503953Y4156327D01*
X10494685Y4145632D01*
X10481171Y4133923D01*
X10471076Y4123828D01*
X10459367Y4110314D01*
X10448672Y4101046D01*
X10433628Y4091378D01*
X10422208Y4082828D01*
X10408695Y4071119D01*
X10396785Y4063465D01*
X10380513Y4056034D01*
X10367989Y4049195D01*
X10352957Y4039534D01*
X10340071Y4033650D01*
X10322916Y4028612D01*
X10309552Y4023627D01*
X10293288Y4016200D01*
X10279699Y4012210D01*
X10262003Y4009666D01*
X10248060Y4006633D01*
X10230903Y4001595D01*
X10216888Y3999580D01*
X10199006Y3999580D01*
X10184775Y3998562D01*
X10163535Y3995508D01*
X10156430Y3995000D01*
X10075000Y3995000D01*
X10015673Y3975500D01*
X9975000Y3895000D01*
X9975000Y3581727D01*
X9994500Y3522400D01*
X10022357Y3496705D01*
X10180044Y3399069D01*
X10187401Y3393512D01*
X10329685Y3263805D01*
X10335895Y3256993D01*
X10451928Y3103340D01*
X10456772Y3095517D01*
X10542599Y2923153D01*
X10545921Y2914578D01*
X10598617Y2729371D01*
X10600308Y2720327D01*
X10618286Y2526305D01*
X10618500Y2521689D01*
X10618500Y1923311D01*
X10618286Y1918695D01*
X10600307Y1724672D01*
X10598617Y1715628D01*
X10545921Y1530421D01*
X10542599Y1521846D01*
X10456772Y1349482D01*
X10451928Y1341659D01*
X10335895Y1188006D01*
X10329685Y1181194D01*
X10187401Y1051487D01*
X10180048Y1045933D01*
X10016339Y944568D01*
X10008105Y940469D01*
X9828567Y870915D01*
X9819699Y868392D01*
X9630439Y833013D01*
X9621274Y832164D01*
X9428725Y832164D01*
X9419560Y833013D01*
X9230300Y868392D01*
X9221432Y870915D01*
X9041894Y940469D01*
X9033660Y944568D01*
X8869951Y1045933D01*
X8862598Y1051487D01*
X8720314Y1181194D01*
X8714104Y1188006D01*
X8598071Y1341659D01*
X8593227Y1349482D01*
X8507400Y1521846D01*
X8504078Y1530421D01*
X8451381Y1715630D01*
X8449692Y1724671D01*
X8431714Y1918694D01*
X8431500Y1923311D01*
X8431500Y2521689D01*
X8431714Y2526306D01*
X8449692Y2720328D01*
X8451381Y2729369D01*
X8504078Y2914578D01*
X8507400Y2923153D01*
X8593227Y3095517D01*
X8598071Y3103340D01*
X8714104Y3256993D01*
X8720314Y3263805D01*
X8862598Y3393512D01*
X8869958Y3399071D01*
X9027644Y3496707D01*
X9067819Y3544518D01*
X9075000Y3581728D01*
X9075000Y4220094D01*
X9055500Y4279421D01*
X9004605Y4315611D01*
X8960766Y4319076D01*
X8946886Y4317080D01*
X8929006Y4317080D01*
X8914775Y4316062D01*
X8893535Y4313008D01*
X8886430Y4312500D01*
X8123044Y4312500D01*
X8056732Y4287351D01*
X7993774Y4231575D01*
X7983882Y4224747D01*
X7855851Y4157551D01*
X7844615Y4153290D01*
X7704225Y4118688D01*
X7692296Y4117239D01*
X7547703Y4117239D01*
X7535779Y4118687D01*
X7513291Y4124230D01*
X7451021Y4119495D01*
X7403702Y4078741D01*
X7389789Y4017860D01*
X7395294Y3997217D01*
X7394334Y3996935D01*
X7401387Y3972916D01*
X7406372Y3959552D01*
X7413801Y3943284D01*
X7417788Y3929704D01*
X7420334Y3912001D01*
X7423366Y3898064D01*
X7428405Y3880901D01*
X7430419Y3866892D01*
X7430419Y3849012D01*
X7431437Y3834780D01*
X7434492Y3813534D01*
X7435000Y3806430D01*
X7435000Y3581727D01*
X7454500Y3522400D01*
X7482357Y3496705D01*
X7640044Y3399069D01*
X7647401Y3393512D01*
X7789685Y3263805D01*
X7795895Y3256993D01*
X7911928Y3103340D01*
X7916772Y3095517D01*
X8002599Y2923153D01*
X8005921Y2914578D01*
X8058617Y2729371D01*
X8060308Y2720327D01*
X8078286Y2526305D01*
X8078500Y2521689D01*
X8078500Y1923311D01*
X8078286Y1918695D01*
X8060307Y1724672D01*
X8058617Y1715628D01*
X8005921Y1530421D01*
X8002599Y1521846D01*
X7916772Y1349482D01*
X7911928Y1341659D01*
X7795895Y1188006D01*
X7789685Y1181194D01*
X7647401Y1051487D01*
X7640048Y1045933D01*
X7476339Y944568D01*
X7468105Y940469D01*
X7288567Y870915D01*
X7279699Y868392D01*
X7090439Y833013D01*
X7081274Y832164D01*
X6888725Y832164D01*
X6879560Y833013D01*
X6690300Y868392D01*
X6681432Y870915D01*
X6501894Y940469D01*
X6493660Y944568D01*
X6329951Y1045933D01*
X6322598Y1051487D01*
X6180314Y1181194D01*
X6174104Y1188006D01*
X6058071Y1341659D01*
X6053227Y1349482D01*
X5967400Y1521846D01*
X5964078Y1530421D01*
X5911381Y1715630D01*
X5909692Y1724671D01*
X5891714Y1918694D01*
X5891500Y1923311D01*
X5891500Y2521689D01*
X5891714Y2526306D01*
X5909692Y2720328D01*
X5911381Y2729369D01*
X5964078Y2914578D01*
X5967400Y2923153D01*
X6053227Y3095517D01*
X6058071Y3103339D01*
X6130867Y3199737D01*
X6151058Y3258832D01*
X6132252Y3318383D01*
X6051065Y3360000D01*
X5378934Y3360000D01*
X5319607Y3340500D01*
X5283417Y3289605D01*
X5299132Y3199737D01*
X5371928Y3103339D01*
X5376772Y3095517D01*
X5462599Y2923153D01*
X5465921Y2914578D01*
X5518617Y2729371D01*
X5520308Y2720327D01*
X5538286Y2526305D01*
X5538500Y2521689D01*
X5538500Y1923311D01*
X5538286Y1918695D01*
X5520307Y1724672D01*
X5518617Y1715628D01*
X5465921Y1530421D01*
X5462599Y1521846D01*
X5376772Y1349482D01*
X5371928Y1341659D01*
X5255895Y1188006D01*
X5249685Y1181194D01*
X5107401Y1051487D01*
X5100048Y1045933D01*
X4936339Y944568D01*
X4928105Y940469D01*
X4748567Y870915D01*
X4739699Y868392D01*
X4550439Y833013D01*
X4541274Y832164D01*
X4348725Y832164D01*
X4339560Y833013D01*
X4150300Y868392D01*
X4141432Y870915D01*
X3961894Y940469D01*
X3953660Y944568D01*
X3789951Y1045933D01*
X3782598Y1051487D01*
X3640314Y1181194D01*
X3634104Y1188006D01*
X3518071Y1341659D01*
X3513227Y1349482D01*
X3427400Y1521846D01*
X3424078Y1530421D01*
X3371381Y1715630D01*
X3369692Y1724671D01*
X3351714Y1918694D01*
X3351500Y1923311D01*
X3351500Y2521689D01*
X3351714Y2526306D01*
X3369692Y2720328D01*
X3371381Y2729369D01*
X3424078Y2914578D01*
X3427400Y2923153D01*
X3513227Y3095517D01*
X3518071Y3103339D01*
X3590867Y3199737D01*
X3611058Y3258832D01*
X3592252Y3318383D01*
X3511065Y3360000D01*
X3098500Y3360000D01*
X3039173Y3340500D01*
X2998500Y3260000D01*
X2998500Y843513D01*
X2996934Y838748D01*
X2974672Y827500D01*
X827513Y827500D01*
X822748Y829066D01*
X811500Y851328D01*
X811500Y3601487D01*
X820413Y3628605D01*
X826890Y3635081D01*
X836619Y3694410D01*
X834666Y3707995D01*
X831633Y3721939D01*
X826595Y3739096D01*
X824580Y3753111D01*
X824580Y3770994D01*
X823562Y3785225D01*
X820508Y3806465D01*
X820000Y3813570D01*
X820000Y4600000D01*
X800500Y4659327D01*
X720000Y4700000D01*
X400000Y4700000D01*
X340673Y4680500D01*
X300000Y4600000D01*
X300000Y400000D01*
X319500Y340673D01*
X400000Y300000D01*
X11968725Y300000D01*
X11968725Y832164D01*
X11959560Y833013D01*
X11770300Y868392D01*
X11761432Y870915D01*
X11581894Y940469D01*
X11573660Y944568D01*
X11409951Y1045933D01*
X11402598Y1051487D01*
X11260314Y1181194D01*
X11254104Y1188006D01*
X11138071Y1341659D01*
X11133227Y1349482D01*
X11047400Y1521846D01*
X11044078Y1530421D01*
X10991381Y1715630D01*
X10989692Y1724671D01*
X10971714Y1918694D01*
X10971500Y1923311D01*
X10971500Y2521689D01*
X10971714Y2526306D01*
X10989692Y2720328D01*
X10991381Y2729369D01*
X11044078Y2914578D01*
X11047400Y2923153D01*
X11133227Y3095517D01*
X11138071Y3103340D01*
X11254104Y3256993D01*
X11260314Y3263805D01*
X11402598Y3393512D01*
X11409951Y3399066D01*
X11573660Y3500431D01*
X11581894Y3504530D01*
X11761432Y3574084D01*
X11770300Y3576607D01*
X11959560Y3611986D01*
X11968725Y3612835D01*
X12161274Y3612835D01*
X12170439Y3611986D01*
X12359699Y3576607D01*
X12368567Y3574084D01*
X12548105Y3504530D01*
X12556339Y3500431D01*
X12720048Y3399066D01*
X12727401Y3393512D01*
X12869685Y3263805D01*
X12875895Y3256993D01*
X12991928Y3103340D01*
X12996772Y3095517D01*
X13082599Y2923153D01*
X13085921Y2914578D01*
X13138617Y2729371D01*
X13140308Y2720327D01*
X13158286Y2526305D01*
X13158500Y2521689D01*
X13158500Y1923311D01*
X13158286Y1918695D01*
X13140307Y1724672D01*
X13138617Y1715628D01*
X13085921Y1530421D01*
X13082599Y1521846D01*
X12996772Y1349482D01*
X12991928Y1341659D01*
X12875895Y1188006D01*
X12869685Y1181194D01*
X12727401Y1051487D01*
X12720048Y1045933D01*
X12556339Y944568D01*
X12548105Y940469D01*
X12368567Y870915D01*
X12359699Y868392D01*
X12170439Y833013D01*
X12161274Y832164D01*
X11968725Y832164D01*
X11968725Y300000D01*
X14508725Y300000D01*
X14508725Y832164D01*
X14499560Y833013D01*
X14310300Y868392D01*
X14301432Y870915D01*
X14121894Y940469D01*
X14113660Y944568D01*
X13949951Y1045933D01*
X13942598Y1051487D01*
X13800314Y1181194D01*
X13794104Y1188006D01*
X13678071Y1341659D01*
X13673227Y1349482D01*
X13587400Y1521846D01*
X13584078Y1530421D01*
X13531381Y1715630D01*
X13529692Y1724671D01*
X13511714Y1918694D01*
X13511500Y1923311D01*
X13511500Y2521689D01*
X13511714Y2526306D01*
X13529692Y2720328D01*
X13531381Y2729369D01*
X13584078Y2914578D01*
X13587400Y2923153D01*
X13673227Y3095517D01*
X13678071Y3103340D01*
X13794104Y3256993D01*
X13800314Y3263805D01*
X13942598Y3393512D01*
X13949951Y3399066D01*
X14113660Y3500431D01*
X14121894Y3504530D01*
X14301432Y3574084D01*
X14310300Y3576607D01*
X14499560Y3611986D01*
X14508725Y3612835D01*
X14701274Y3612835D01*
X14710439Y3611986D01*
X14899699Y3576607D01*
X14908567Y3574084D01*
X15088105Y3504530D01*
X15096339Y3500431D01*
X15260048Y3399066D01*
X15267401Y3393512D01*
X15409685Y3263805D01*
X15415895Y3256993D01*
X15531928Y3103340D01*
X15536772Y3095517D01*
X15622599Y2923153D01*
X15625921Y2914578D01*
X15678617Y2729371D01*
X15680308Y2720327D01*
X15698286Y2526305D01*
X15698500Y2521689D01*
X15698500Y1923311D01*
X15698286Y1918695D01*
X15680307Y1724672D01*
X15678617Y1715628D01*
X15625921Y1530421D01*
X15622599Y1521846D01*
X15536772Y1349482D01*
X15531928Y1341659D01*
X15415895Y1188006D01*
X15409685Y1181194D01*
X15267401Y1051487D01*
X15260048Y1045933D01*
X15096339Y944568D01*
X15088105Y940469D01*
X14908567Y870915D01*
X14899699Y868392D01*
X14710439Y833013D01*
X14701274Y832164D01*
X14508725Y832164D01*
X14508725Y300000D01*
X24600000Y300000D01*
X24659327Y319500D01*
G37*
G36*
X14948973Y8830990D02*
X14988973Y8851984D01*
X15032442Y8896821D01*
X15042500Y8940529D01*
X15042500Y9610000D01*
X15023000Y9669327D01*
X14942500Y9710000D01*
X14902500Y9710000D01*
X14843173Y9690500D01*
X14802500Y9610000D01*
X14802500Y8919535D01*
X14822000Y8860208D01*
X14872895Y8824018D01*
X14948973Y8830990D01*
G37*
G36*
X6156903Y7970086D02*
X6185000Y8039584D01*
X6185000Y9408987D01*
X6186566Y9413752D01*
X6230096Y9435746D01*
X6274255Y9479905D01*
X6283604Y9541651D01*
X6254498Y9596903D01*
X6185000Y9625000D01*
X5947500Y9625000D01*
X5888173Y9605500D01*
X5847500Y9525000D01*
X5847500Y8100000D01*
X5867000Y8040673D01*
X5947500Y8000000D01*
X5988987Y8000000D01*
X5993752Y7998434D01*
X5995746Y7994488D01*
X6039905Y7950329D01*
X6101651Y7940980D01*
X6156903Y7970086D01*
G37*
G36*
X8410818Y8814817D02*
X8440000Y8885420D01*
X8440000Y9525000D01*
X8420500Y9584327D01*
X8340000Y9625000D01*
X7785000Y9625000D01*
X7725673Y9605500D01*
X7689483Y9554605D01*
X7690545Y9492164D01*
X7753775Y9430000D01*
X7773752Y9423434D01*
X7785000Y9401172D01*
X7785000Y9000260D01*
X7804500Y8940933D01*
X7885000Y8900260D01*
X8009796Y8900260D01*
X8021725Y8898811D01*
X8162115Y8864209D01*
X8173351Y8859948D01*
X8293528Y8796874D01*
X8355122Y8786570D01*
X8410818Y8814817D01*
G37*
G36*
X2346903Y7970086D02*
X2375000Y8039584D01*
X2375000Y9408987D01*
X2376566Y9413752D01*
X2420096Y9435746D01*
X2464255Y9479905D01*
X2473604Y9541651D01*
X2444498Y9596903D01*
X2375000Y9625000D01*
X1820000Y9625000D01*
X1760673Y9605500D01*
X1720000Y9525000D01*
X1720000Y8100000D01*
X1739500Y8040673D01*
X1820000Y8000000D01*
X2178987Y8000000D01*
X2183752Y7998434D01*
X2185746Y7994488D01*
X2229905Y7950329D01*
X2291651Y7940980D01*
X2346903Y7970086D01*
G37*
G36*
X4120096Y7970326D02*
X4178827Y8000000D01*
X4847500Y8000000D01*
X4906827Y8019500D01*
X4947500Y8100000D01*
X4947500Y9525000D01*
X4928000Y9584327D01*
X4847500Y9625000D01*
X3975000Y9625000D01*
X3915673Y9605500D01*
X3879483Y9554605D01*
X3880545Y9492164D01*
X3943775Y9430000D01*
X3963752Y9423434D01*
X3975000Y9401172D01*
X3975000Y8059580D01*
X3994500Y8000253D01*
X4045395Y7964063D01*
X4120096Y7970326D01*
G37*
G36*
X6494327Y6819500D02*
X6535000Y6900000D01*
X6535000Y7325000D01*
X6515500Y7384327D01*
X6435000Y7425000D01*
X6201013Y7425000D01*
X6196248Y7426566D01*
X6194254Y7430512D01*
X6150095Y7474671D01*
X6088349Y7484020D01*
X6033097Y7454914D01*
X6005000Y7385416D01*
X6005000Y6900000D01*
X6024500Y6840673D01*
X6105000Y6800000D01*
X6435000Y6800000D01*
X6494327Y6819500D01*
G37*
G36*
X5146592Y4279500D02*
X5182782Y4330395D01*
X5169563Y4416806D01*
X5142890Y4455448D01*
X5137310Y4466080D01*
X5086031Y4601290D01*
X5081711Y4618820D01*
X5080261Y4618463D01*
X5056762Y4668593D01*
X4983996Y4700000D01*
X4171013Y4700000D01*
X4166248Y4701566D01*
X4155000Y4723828D01*
X4155000Y5800000D01*
X4135500Y5859327D01*
X4055000Y5900000D01*
X3496070Y5900000D01*
X3488965Y5900508D01*
X3467725Y5903562D01*
X3453494Y5904580D01*
X3435611Y5904580D01*
X3421596Y5906595D01*
X3404439Y5911633D01*
X3390496Y5914666D01*
X3372800Y5917210D01*
X3359211Y5921200D01*
X3342947Y5928627D01*
X3329583Y5933612D01*
X3312428Y5938650D01*
X3299542Y5944534D01*
X3284510Y5954195D01*
X3271986Y5961034D01*
X3255714Y5968465D01*
X3243804Y5976119D01*
X3230291Y5987828D01*
X3218871Y5996378D01*
X3203827Y6006046D01*
X3193132Y6015314D01*
X3181423Y6028828D01*
X3171328Y6038923D01*
X3157814Y6050632D01*
X3148546Y6061327D01*
X3138878Y6076371D01*
X3130328Y6087791D01*
X3118619Y6101304D01*
X3110965Y6113214D01*
X3103534Y6129486D01*
X3096695Y6142010D01*
X3087034Y6157042D01*
X3081150Y6169928D01*
X3076112Y6187083D01*
X3071127Y6200447D01*
X3063700Y6216711D01*
X3059710Y6230300D01*
X3057166Y6247996D01*
X3054133Y6261939D01*
X3049095Y6279096D01*
X3047080Y6293111D01*
X3047080Y6310994D01*
X3046062Y6325225D01*
X3043008Y6346465D01*
X3042500Y6353570D01*
X3042500Y7325000D01*
X3023000Y7384327D01*
X2942500Y7425000D01*
X2391013Y7425000D01*
X2386248Y7426566D01*
X2384254Y7430512D01*
X2340095Y7474671D01*
X2278349Y7484020D01*
X2223097Y7454914D01*
X2195000Y7385416D01*
X2195000Y6666013D01*
X2193434Y6661248D01*
X2171172Y6650000D01*
X400000Y6650000D01*
X340673Y6630500D01*
X300000Y6550000D01*
X300000Y6150000D01*
X319500Y6090673D01*
X400000Y6050000D01*
X2178987Y6050000D01*
X2183752Y6048434D01*
X2195000Y6026172D01*
X2195000Y4716013D01*
X2193434Y4711248D01*
X2171172Y4700000D01*
X1820000Y4700000D01*
X1760673Y4680500D01*
X1720000Y4600000D01*
X1720000Y4360000D01*
X1739500Y4300673D01*
X1820000Y4260000D01*
X5087265Y4260000D01*
X5146592Y4279500D01*
G37*
G36*
X4114327Y6819500D02*
X4155000Y6900000D01*
X4155000Y7365420D01*
X4135500Y7424747D01*
X4084605Y7460937D01*
X4009908Y7454676D01*
X3997408Y7448361D01*
X3953247Y7404204D01*
X3942500Y7359105D01*
X3942500Y6900000D01*
X3962000Y6840673D01*
X4042500Y6800000D01*
X4055000Y6800000D01*
X4114327Y6819500D01*
G37*
G36*
X7903339Y5377318D02*
X7950657Y5418074D01*
X7965000Y5469677D01*
X7965000Y6033987D01*
X7966566Y6038752D01*
X7988828Y6050000D01*
X9610000Y6050000D01*
X9669327Y6069500D01*
X9710000Y6150000D01*
X9710000Y6550000D01*
X9690500Y6609327D01*
X9610000Y6650000D01*
X7981013Y6650000D01*
X7976248Y6651566D01*
X7965000Y6673828D01*
X7965000Y7365420D01*
X7945500Y7424747D01*
X7894605Y7460937D01*
X7819904Y7454674D01*
X7761173Y7425000D01*
X7535000Y7425000D01*
X7475673Y7405500D01*
X7435000Y7325000D01*
X7435000Y6223400D01*
X7465124Y6156458D01*
X7462992Y6154569D01*
X7474966Y6141053D01*
X7557111Y6022046D01*
X7562689Y6011419D01*
X7613970Y5876203D01*
X7616840Y5864557D01*
X7634271Y5721004D01*
X7634271Y5708996D01*
X7616840Y5565442D01*
X7613968Y5553789D01*
X7609735Y5542627D01*
X7606929Y5480240D01*
X7641683Y5428354D01*
X7691184Y5407895D01*
X7704223Y5406312D01*
X7841069Y5372583D01*
X7903339Y5377318D01*
G37*
G36*
X7046073Y4274923D02*
X7085803Y4323105D01*
X7089201Y4385462D01*
X7074941Y4416260D01*
X7047888Y4455453D01*
X7042310Y4466080D01*
X6991031Y4601290D01*
X6988158Y4612949D01*
X6970729Y4756496D01*
X6970729Y4768504D01*
X6988158Y4912050D01*
X6991033Y4923717D01*
X6995264Y4934872D01*
X6998070Y4997259D01*
X6963316Y5049145D01*
X6913815Y5069604D01*
X6900776Y5071187D01*
X6760384Y5105790D01*
X6749148Y5110051D01*
X6621113Y5177249D01*
X6611230Y5184071D01*
X6502992Y5279962D01*
X6495033Y5288946D01*
X6412888Y5407953D01*
X6407310Y5418580D01*
X6356031Y5553790D01*
X6353158Y5565449D01*
X6335729Y5708996D01*
X6335729Y5721004D01*
X6343857Y5787947D01*
X6331650Y5849192D01*
X6285488Y5891253D01*
X6244586Y5900000D01*
X6105000Y5900000D01*
X6045673Y5880500D01*
X6005000Y5800000D01*
X6005000Y5783669D01*
X6037063Y5716621D01*
X6033998Y5713769D01*
X6048515Y5698168D01*
X6064226Y5675525D01*
X6070812Y5667044D01*
X6088879Y5646195D01*
X6096532Y5634285D01*
X6099925Y5626856D01*
X6108733Y5611384D01*
X6113376Y5604693D01*
X6119716Y5592020D01*
X6128411Y5565871D01*
X6132338Y5555885D01*
X6143800Y5530787D01*
X6147789Y5517200D01*
X6148952Y5509112D01*
X6153042Y5491797D01*
X6155613Y5484064D01*
X6158123Y5470128D01*
X6159100Y5442584D01*
X6160055Y5431898D01*
X6164492Y5401038D01*
X6165000Y5393930D01*
X6165000Y5270900D01*
X6195124Y5203958D01*
X6192992Y5202069D01*
X6204966Y5188553D01*
X6287111Y5069546D01*
X6292689Y5058919D01*
X6343970Y4923703D01*
X6346840Y4912057D01*
X6364271Y4768504D01*
X6364271Y4756496D01*
X6346840Y4612942D01*
X6343970Y4601296D01*
X6292689Y4466080D01*
X6287109Y4455448D01*
X6260436Y4416806D01*
X6242782Y4356904D01*
X6264110Y4298208D01*
X6342734Y4260000D01*
X6981424Y4260000D01*
X6985504Y4259708D01*
X7046073Y4274923D01*
G37*
G36*
X23956827Y3644500D02*
X23997500Y3725000D01*
X23997500Y3888172D01*
X23978000Y3947499D01*
X23927105Y3983689D01*
X23864664Y3982627D01*
X23812478Y3940816D01*
X23719058Y3789939D01*
X23715529Y3785266D01*
X23695335Y3726171D01*
X23714139Y3666620D01*
X23795328Y3625000D01*
X23897500Y3625000D01*
X23956827Y3644500D01*
G37*
G36*
X21348999Y3644500D02*
X21385189Y3695395D01*
X21369470Y3785268D01*
X21365932Y3789952D01*
X21357520Y3803538D01*
X21309708Y3843714D01*
X21247385Y3847689D01*
X21187477Y3803536D01*
X21179064Y3789948D01*
X21175528Y3785266D01*
X21155334Y3726171D01*
X21174138Y3666620D01*
X21255327Y3625000D01*
X21289672Y3625000D01*
X21348999Y3644500D01*
G37*
G36*
X21357520Y2546461D02*
X21365933Y2560047D01*
X21369474Y2564737D01*
X21389665Y2623832D01*
X21370859Y2683384D01*
X21289672Y2725000D01*
X21255327Y2725000D01*
X21196000Y2705500D01*
X21159810Y2654605D01*
X21175524Y2564738D01*
X21179067Y2560047D01*
X21187477Y2546463D01*
X21235287Y2506286D01*
X21297610Y2502309D01*
X21357520Y2546461D01*
G37*
G04 --- BOARD END --- *
%TF.MD5,a1eb086f75ce8a926385599e4cb44f58*%
M02*
