G04 --- HEADER BEGIN --- *
%TF.GenerationSoftware,LibrePCB,LibrePCB,0.1.3*%
%TF.CreationDate,2020-05-07T14:01:14*%
%TF.ProjectId,SprigFTDI - default,c1b4763c-5183-4b8f-a850-9e664554c68f,v1*%
%TF.Part,Single*%
%FSLAX66Y66*%
%MOMM*%
G01*
G74*
G04 --- HEADER END --- *
G04 --- APERTURE LIST BEGIN --- *
%ADD10C,0.25*%
%ADD11C,0.1524*%
%ADD12C,0.2*%
%ADD13C,0.1*%
%ADD14C,0.9*%
%ADD15O,1.787X2.39*%
%ADD16R,1.787X2.39*%
%ADD17R,1.2X1.6*%
%ADD18R,1.7X1.5*%
%ADD19R,1.45X0.95*%
%ADD20R,1.5X1.7*%
%ADD21R,1.26X0.85*%
%ADD22O,2.39X1.787*%
%ADD23R,2.39X1.787*%
G04 --- APERTURE LIST END --- *
G04 --- BOARD BEGIN --- *
D10*
X21445000Y11940000D02*
X19320000Y11940000D01*
X19050000Y12210000D01*
X18780000Y11940000D01*
X16780000Y11940000D01*
X16510000Y12210000D01*
X16240000Y11940000D01*
X14240000Y11940000D01*
X13970000Y12210000D01*
X13700000Y11940000D01*
X11700000Y11940000D01*
X11430000Y12210000D01*
X11160000Y11940000D01*
X9160000Y11940000D01*
X8890000Y12210000D01*
X8620000Y11940000D01*
X6620000Y11940000D01*
X6350000Y12210000D01*
X6080000Y11940000D01*
X4080000Y11940000D01*
X3810000Y12210000D01*
X3540000Y11940000D01*
X1415000Y11940000D01*
X1145000Y12210000D01*
X1145000Y14460000D01*
X1415000Y14730000D01*
X3540000Y14730000D01*
X3810000Y14460000D01*
X4080000Y14730000D01*
X6080000Y14730000D01*
X6350000Y14460000D01*
X6620000Y14730000D01*
X8620000Y14730000D01*
X8890000Y14460000D01*
X9160000Y14730000D01*
X11160000Y14730000D01*
X11430000Y14460000D01*
X11700000Y14730000D01*
X13700000Y14730000D01*
X13970000Y14460000D01*
X14240000Y14730000D01*
X16240000Y14730000D01*
X16510000Y14460000D01*
X16780000Y14730000D01*
X18780000Y14730000D01*
X19050000Y14460000D01*
X19320000Y14730000D01*
X21445000Y14730000D01*
X21715000Y14460000D01*
X21715000Y12210000D01*
X21445000Y11940000D01*
D11*
X1752600Y8864600D02*
X1752600Y9677400D01*
X4597400Y9677400D02*
X4597400Y8864600D01*
X4597400Y8864600D02*
X4038600Y8864600D01*
X2311400Y8864600D02*
X1752600Y8864600D01*
D10*
X5830000Y6025000D02*
X5830000Y6675000D01*
X4330000Y6025000D02*
X4330000Y6675000D01*
D12*
X14685000Y9205000D02*
X15160000Y9205000D01*
X14685000Y7305000D02*
X15160000Y7305000D01*
X15872500Y8730000D02*
X15872500Y7780000D01*
D10*
X9640000Y6025000D02*
X9640000Y6675000D01*
X8140000Y6025000D02*
X8140000Y6675000D01*
D11*
X5562600Y8864600D02*
X5562600Y9677400D01*
X8407400Y9677400D02*
X8407400Y8864600D01*
X8407400Y8864600D02*
X7848600Y8864600D01*
X6121400Y8864600D02*
X5562600Y8864600D01*
D10*
X23937500Y8110000D02*
X23937500Y5985000D01*
X23667500Y5715000D01*
X23937500Y5445000D01*
X23937500Y3445000D01*
X23667500Y3175000D01*
X23937500Y2905000D01*
X23937500Y780000D01*
X23667500Y510000D01*
X18877500Y510000D01*
X18607500Y780000D01*
X18607500Y2905000D01*
X18877500Y3175000D01*
X18607500Y3445000D01*
X18607500Y5445000D01*
X18877500Y5715000D01*
X18607500Y5985000D01*
X18607500Y8110000D01*
X18877500Y8380000D01*
X23667500Y8380000D01*
X23937500Y8110000D01*
X2020000Y6025000D02*
X2020000Y6675000D01*
X520000Y6025000D02*
X520000Y6675000D01*
X780000Y3617500D02*
X2905000Y3617500D01*
X3175000Y3347500D01*
X3445000Y3617500D01*
X5445000Y3617500D01*
X5715000Y3347500D01*
X5985000Y3617500D01*
X7985000Y3617500D01*
X8255000Y3347500D01*
X8525000Y3617500D01*
X10525000Y3617500D01*
X10795000Y3347500D01*
X11065000Y3617500D01*
X13065000Y3617500D01*
X13335000Y3347500D01*
X13605000Y3617500D01*
X15730000Y3617500D01*
X16000000Y3347500D01*
X16000000Y1097500D01*
X15730000Y827500D01*
X13605000Y827500D01*
X13335000Y1097500D01*
X13065000Y827500D01*
X11065000Y827500D01*
X10795000Y1097500D01*
X10525000Y827500D01*
X8525000Y827500D01*
X8255000Y1097500D01*
X7985000Y827500D01*
X5985000Y827500D01*
X5715000Y1097500D01*
X5445000Y827500D01*
X3445000Y827500D01*
X3175000Y1097500D01*
X2905000Y827500D01*
X780000Y827500D01*
X510000Y1097500D01*
X510000Y3347500D01*
X780000Y3617500D01*
D13*
X12631944Y10497500D02*
X12631944Y10092500D01*
X12655833Y10045278D01*
X12679722Y10021389D01*
X12726944Y9997500D01*
X12822500Y9997500D01*
X12870277Y10021389D01*
X12893611Y10045278D01*
X12917500Y10092500D01*
X12917500Y10497500D01*
X13403056Y9997500D02*
X13117500Y9997500D01*
X13260278Y9997500D02*
X13260278Y10497500D01*
X13212500Y10425833D01*
X13165278Y10378611D01*
X13117500Y10354722D01*
D14*
X17462500Y5715000D02*
X17462500Y5715000D01*
X17462500Y3175000D01*
X18097500Y3175000D01*
X18097500Y5715000D01*
X17462500Y5715000D01*
D12*
X1523611Y3810000D02*
X1190278Y4286667D01*
X952500Y3810000D02*
X952500Y4810000D01*
X1333611Y4810000D01*
X1429167Y4762222D01*
X1475833Y4714444D01*
X1523611Y4620000D01*
X1523611Y4476667D01*
X1475833Y4381111D01*
X1429167Y4333333D01*
X1333611Y4286667D01*
X952500Y4286667D01*
X1923611Y3857778D02*
X2066944Y3810000D01*
X2304722Y3810000D01*
X2400278Y3857778D01*
X2446944Y3905556D01*
X2494722Y4000000D01*
X2494722Y4095556D01*
X2446944Y4191111D01*
X2400278Y4238889D01*
X2304722Y4286667D01*
X2113611Y4333333D01*
X2019167Y4381111D01*
X1971389Y4428889D01*
X1923611Y4524444D01*
X1923611Y4620000D01*
X1971389Y4714444D01*
X2019167Y4762222D01*
X2113611Y4810000D01*
X2352500Y4810000D01*
X2494722Y4762222D01*
X11747500Y14922500D02*
X11747500Y15422500D01*
X11914167Y15065278D01*
X12080833Y15422500D01*
X12080833Y14922500D01*
X12499722Y15422500D02*
X12595277Y15422500D01*
X12642500Y15398611D01*
X12690277Y15350833D01*
X12714166Y15255833D01*
X12714166Y15089167D01*
X12690277Y14994167D01*
X12642500Y14946389D01*
X12595277Y14922500D01*
X12499722Y14922500D01*
X12452500Y14946389D01*
X12404722Y14994167D01*
X12380833Y15089167D01*
X12380833Y15255833D01*
X12404722Y15350833D01*
X12452500Y15398611D01*
X12499722Y15422500D01*
X13014166Y14946389D02*
X13085833Y14922500D01*
X13204722Y14922500D01*
X13252499Y14946389D01*
X13275833Y14970278D01*
X13299722Y15017500D01*
X13299722Y15065278D01*
X13275833Y15113056D01*
X13252499Y15136944D01*
X13204722Y15160833D01*
X13109166Y15184167D01*
X13061944Y15208056D01*
X13038055Y15231944D01*
X13014166Y15279722D01*
X13014166Y15327500D01*
X13038055Y15374722D01*
X13061944Y15398611D01*
X13109166Y15422500D01*
X13228610Y15422500D01*
X13299722Y15398611D01*
X13599722Y14922500D02*
X13599722Y15422500D01*
X9207500Y14922500D02*
X9207500Y15422500D01*
X9374167Y15065278D01*
X9540833Y15422500D01*
X9540833Y14922500D01*
X9840833Y14922500D02*
X9840833Y15422500D01*
X10140833Y14946389D02*
X10212500Y14922500D01*
X10331389Y14922500D01*
X10379166Y14946389D01*
X10402500Y14970278D01*
X10426389Y15017500D01*
X10426389Y15065278D01*
X10402500Y15113056D01*
X10379166Y15136944D01*
X10331389Y15160833D01*
X10235833Y15184167D01*
X10188611Y15208056D01*
X10164722Y15231944D01*
X10140833Y15279722D01*
X10140833Y15327500D01*
X10164722Y15374722D01*
X10188611Y15398611D01*
X10235833Y15422500D01*
X10355277Y15422500D01*
X10426389Y15398611D01*
X10845278Y15422500D02*
X10940833Y15422500D01*
X10988056Y15398611D01*
X11035833Y15350833D01*
X11059722Y15255833D01*
X11059722Y15089167D01*
X11035833Y14994167D01*
X10988056Y14946389D01*
X10940833Y14922500D01*
X10845278Y14922500D01*
X10798056Y14946389D01*
X10750278Y14994167D01*
X10726389Y15089167D01*
X10726389Y15255833D01*
X10750278Y15350833D01*
X10798056Y15398611D01*
X10845278Y15422500D01*
X11430000Y4127500D02*
X11430000Y5127500D01*
X12001111Y4127500D01*
X12001111Y5127500D01*
X13020000Y4223056D02*
X12972222Y4175278D01*
X12830000Y4127500D01*
X12734444Y4127500D01*
X12591111Y4175278D01*
X12496667Y4270833D01*
X12448889Y4365278D01*
X12401111Y4556389D01*
X12401111Y4698611D01*
X12448889Y4889722D01*
X12496667Y4984167D01*
X12591111Y5079722D01*
X12734444Y5127500D01*
X12830000Y5127500D01*
X12972222Y5079722D01*
X13020000Y5031944D01*
X16192778Y1523611D02*
X16145000Y1429167D01*
X16145000Y1285833D01*
X16192778Y1142500D01*
X16288333Y1048056D01*
X16382778Y1000278D01*
X16573889Y952500D01*
X16716111Y952500D01*
X16907222Y1000278D01*
X17001667Y1048056D01*
X17097222Y1142500D01*
X17145000Y1285833D01*
X17145000Y1381389D01*
X17097222Y1523611D01*
X17049444Y1571389D01*
X16716111Y1571389D01*
X16716111Y1381389D01*
X17145000Y1971389D02*
X16145000Y1971389D01*
X17145000Y2542500D01*
X16145000Y2542500D01*
X17145000Y2942500D02*
X16145000Y2942500D01*
X16145000Y3180278D01*
X16192778Y3323611D01*
X16288333Y3419167D01*
X16382778Y3465833D01*
X16573889Y3513611D01*
X16716111Y3513611D01*
X16907222Y3465833D01*
X17001667Y3419167D01*
X17097222Y3323611D01*
X17145000Y3180278D01*
X17145000Y2942500D01*
X3492500Y4810000D02*
X4063611Y4810000D01*
X3778056Y3810000D02*
X3778056Y4810000D01*
X4463611Y4810000D02*
X5130278Y3810000D01*
X5130278Y4810000D02*
X4463611Y3810000D01*
X14890556Y14922500D02*
X14723889Y15160833D01*
X14605000Y14922500D02*
X14605000Y15422500D01*
X14795556Y15422500D01*
X14843333Y15398611D01*
X14866667Y15374722D01*
X14890556Y15327500D01*
X14890556Y15255833D01*
X14866667Y15208056D01*
X14843333Y15184167D01*
X14795556Y15160833D01*
X14605000Y15160833D01*
X15190556Y14946389D02*
X15262223Y14922500D01*
X15381112Y14922500D01*
X15428889Y14946389D01*
X15452223Y14970278D01*
X15476112Y15017500D01*
X15476112Y15065278D01*
X15452223Y15113056D01*
X15428889Y15136944D01*
X15381112Y15160833D01*
X15285556Y15184167D01*
X15238334Y15208056D01*
X15214445Y15231944D01*
X15190556Y15279722D01*
X15190556Y15327500D01*
X15214445Y15374722D01*
X15238334Y15398611D01*
X15285556Y15422500D01*
X15405000Y15422500D01*
X15476112Y15398611D01*
X15776112Y15422500D02*
X16061668Y15422500D01*
X15918890Y14922500D02*
X15918890Y15422500D01*
X7929444Y14970278D02*
X7905556Y14946389D01*
X7834444Y14922500D01*
X7786667Y14922500D01*
X7715000Y14946389D01*
X7667778Y14994167D01*
X7643889Y15041389D01*
X7620000Y15136944D01*
X7620000Y15208056D01*
X7643889Y15303611D01*
X7667778Y15350833D01*
X7715000Y15398611D01*
X7786667Y15422500D01*
X7834444Y15422500D01*
X7905556Y15398611D01*
X7929444Y15374722D01*
X8229444Y14922500D02*
X8229444Y15422500D01*
X8515000Y14922500D02*
X8301111Y15208056D01*
X8515000Y15422500D02*
X8229444Y15136944D01*
X4445000Y15422500D02*
X4730556Y15422500D01*
X4587778Y14922500D02*
X4587778Y15422500D01*
X5030556Y15422500D02*
X5363889Y14922500D01*
X5363889Y15422500D02*
X5030556Y14922500D01*
X5663889Y14922500D02*
X5663889Y15422500D01*
X5782778Y15422500D01*
X5854445Y15398611D01*
X5902222Y15350833D01*
X5925556Y15303611D01*
X5949445Y15208056D01*
X5949445Y15136944D01*
X5925556Y15041389D01*
X5902222Y14994167D01*
X5854445Y14946389D01*
X5782778Y14922500D01*
X5663889Y14922500D01*
X6249445Y15184167D02*
X6416112Y15184167D01*
X6487778Y14922500D02*
X6249445Y14922500D01*
X6249445Y15422500D01*
X6487778Y15422500D01*
X6787778Y15422500D02*
X6954445Y14922500D01*
X7121111Y15422500D01*
X6921111Y4127500D02*
X6587778Y4604167D01*
X6350000Y4127500D02*
X6350000Y5127500D01*
X6731111Y5127500D01*
X6826667Y5079722D01*
X6873333Y5031944D01*
X6921111Y4937500D01*
X6921111Y4794167D01*
X6873333Y4698611D01*
X6826667Y4650833D01*
X6731111Y4604167D01*
X6350000Y4604167D01*
X7321111Y5127500D02*
X7987778Y4127500D01*
X7987778Y5127500D02*
X7321111Y4127500D01*
X19970556Y15398611D02*
X19923333Y15422500D01*
X19851667Y15422500D01*
X19780000Y15398611D01*
X19732778Y15350833D01*
X19708889Y15303611D01*
X19685000Y15208056D01*
X19685000Y15136944D01*
X19708889Y15041389D01*
X19732778Y14994167D01*
X19780000Y14946389D01*
X19851667Y14922500D01*
X19899444Y14922500D01*
X19970556Y14946389D01*
X19994444Y14970278D01*
X19994444Y15136944D01*
X19899444Y15136944D01*
X20294444Y14922500D02*
X20294444Y15422500D01*
X20580000Y14922500D01*
X20580000Y15422500D01*
X20880000Y14922500D02*
X20880000Y15422500D01*
X20998889Y15422500D01*
X21070556Y15398611D01*
X21118333Y15350833D01*
X21141667Y15303611D01*
X21165556Y15208056D01*
X21165556Y15136944D01*
X21141667Y15041389D01*
X21118333Y14994167D01*
X21070556Y14946389D01*
X20998889Y14922500D01*
X20880000Y14922500D01*
X1555556Y14922500D02*
X1388889Y15160833D01*
X1270000Y14922500D02*
X1270000Y15422500D01*
X1460556Y15422500D01*
X1508333Y15398611D01*
X1531667Y15374722D01*
X1555556Y15327500D01*
X1555556Y15255833D01*
X1531667Y15208056D01*
X1508333Y15184167D01*
X1460556Y15160833D01*
X1270000Y15160833D01*
X1855556Y15422500D02*
X2188889Y14922500D01*
X2188889Y15422500D02*
X1855556Y14922500D01*
X2488889Y14922500D02*
X2488889Y15422500D01*
X2607778Y15422500D01*
X2679445Y15398611D01*
X2727222Y15350833D01*
X2750556Y15303611D01*
X2774445Y15208056D01*
X2774445Y15136944D01*
X2750556Y15041389D01*
X2727222Y14994167D01*
X2679445Y14946389D01*
X2607778Y14922500D01*
X2488889Y14922500D01*
X3074445Y15184167D02*
X3241112Y15184167D01*
X3312778Y14922500D02*
X3074445Y14922500D01*
X3074445Y15422500D01*
X3312778Y15422500D01*
X3612778Y15422500D02*
X3779445Y14922500D01*
X3946111Y15422500D01*
X9730833Y5127500D02*
X9255278Y5127500D01*
X9207500Y4650833D01*
X9255278Y4698611D01*
X9350833Y4746389D01*
X9588611Y4746389D01*
X9684167Y4698611D01*
X9730833Y4650833D01*
X9778611Y4556389D01*
X9778611Y4317500D01*
X9730833Y4223056D01*
X9684167Y4175278D01*
X9588611Y4127500D01*
X9350833Y4127500D01*
X9255278Y4175278D01*
X9207500Y4223056D01*
X10178611Y4794167D02*
X10416389Y4127500D01*
X10655278Y4794167D01*
X17168889Y15374722D02*
X17192778Y15398611D01*
X17240000Y15422500D01*
X17359444Y15422500D01*
X17406667Y15398611D01*
X17430556Y15374722D01*
X17454444Y15327500D01*
X17454444Y15279722D01*
X17430556Y15208056D01*
X17145000Y14922500D01*
X17454444Y14922500D01*
X17778333Y14970278D02*
X17802222Y14946389D01*
X17778333Y14922500D01*
X17754444Y14946389D01*
X17778333Y14970278D01*
X17778333Y14922500D01*
X18102222Y15422500D02*
X18435555Y15422500D01*
X18221111Y14922500D01*
X18735555Y15255833D02*
X18854444Y14922500D01*
X18973888Y15255833D01*
%LPC*%
D15*
X2540000Y13335000D03*
X10160000Y13335000D03*
X7620000Y13335000D03*
D16*
X20320000Y13335000D03*
D15*
X17780000Y13335000D03*
X5080000Y13335000D03*
X15240000Y13335000D03*
X12700000Y13335000D03*
D17*
X2225000Y10625000D03*
X3175000Y8425000D03*
X4125000Y10625000D03*
D18*
X11430000Y8470000D03*
X11430000Y6770000D03*
D19*
X5080000Y7325000D03*
X5080000Y5375000D03*
D20*
X16090000Y5080000D03*
X14390000Y5080000D03*
D21*
X13972500Y7305000D03*
X15872500Y7305000D03*
X13972500Y8255000D03*
X15872500Y9205000D03*
X13972500Y9205000D03*
D19*
X8890000Y7325000D03*
X8890000Y5375000D03*
D17*
X6035000Y10625000D03*
X6985000Y8425000D03*
X7935000Y10625000D03*
D22*
X20002500Y1905000D03*
D23*
X20002500Y6985000D03*
D22*
X22542500Y4445000D03*
X22542500Y1905000D03*
X22542500Y6985000D03*
X20002500Y4445000D03*
D19*
X1270000Y7325000D03*
X1270000Y5375000D03*
D15*
X14605000Y2222500D03*
X9525000Y2222500D03*
X12065000Y2222500D03*
D16*
X1905000Y2222500D03*
D15*
X6985000Y2222500D03*
X4445000Y2222500D03*
G04 --- BOARD END --- *
%TF.MD5,93565528928cf68e3fa17fee8f1818d8*%
M02*
